<mxfile host="Electron" agent="Mozilla/5.0 (Windows NT 10.0; Win64; x64) AppleWebKit/537.36 (KHTML, like Gecko) draw.io/24.7.17 Chrome/128.0.6613.36 Electron/32.0.1 Safari/537.36" version="24.7.17">
  <diagram name="Page-1" id="5f0bae14-7c28-e335-631c-24af17079c00">
    <mxGraphModel dx="2074" dy="1196" grid="1" gridSize="10" guides="1" tooltips="1" connect="1" arrows="1" fold="1" page="1" pageScale="1" pageWidth="1100" pageHeight="850" background="none" math="0" shadow="0">
      <root>
        <mxCell id="0" />
        <mxCell id="1" parent="0" />
        <mxCell id="q4EeELKspMTe00ezjZ1U-33" value="" style="html=1;whiteSpace=wrap;" parent="1" vertex="1">
          <mxGeometry x="217" y="80" width="525" height="720" as="geometry" />
        </mxCell>
        <mxCell id="q4EeELKspMTe00ezjZ1U-1" value="" style="html=1;whiteSpace=wrap;" parent="1" vertex="1">
          <mxGeometry x="252" y="110" width="460" height="200" as="geometry" />
        </mxCell>
        <mxCell id="q4EeELKspMTe00ezjZ1U-12" value="" style="rounded=0;whiteSpace=wrap;html=1;" parent="1" vertex="1">
          <mxGeometry x="262" y="150" width="170" height="145" as="geometry" />
        </mxCell>
        <mxCell id="q4EeELKspMTe00ezjZ1U-11" value="" style="rounded=0;whiteSpace=wrap;html=1;" parent="1" vertex="1">
          <mxGeometry x="282" y="200" width="120" height="85" as="geometry" />
        </mxCell>
        <UserObject label="Java Runtime" placeholders="1" name="Variable" id="q4EeELKspMTe00ezjZ1U-9">
          <mxCell style="text;html=1;strokeColor=none;fillColor=none;align=center;verticalAlign=middle;whiteSpace=wrap;overflow=hidden;" parent="1" vertex="1">
            <mxGeometry x="267" y="230" width="150" height="20" as="geometry" />
          </mxCell>
        </UserObject>
        <mxCell id="q4EeELKspMTe00ezjZ1U-14" value="" style="rounded=0;whiteSpace=wrap;html=1;" parent="1" vertex="1">
          <mxGeometry x="577" y="150" width="130" height="145" as="geometry" />
        </mxCell>
        <mxCell id="q4EeELKspMTe00ezjZ1U-10" value="" style="shape=datastore;whiteSpace=wrap;html=1;" parent="1" vertex="1">
          <mxGeometry x="617" y="180" width="60" height="60" as="geometry" />
        </mxCell>
        <UserObject label="Java Spring Boot" placeholders="1" name="Variable" id="q4EeELKspMTe00ezjZ1U-8">
          <mxCell style="text;html=1;strokeColor=none;fillColor=none;align=center;verticalAlign=middle;whiteSpace=wrap;overflow=hidden;" parent="1" vertex="1">
            <mxGeometry x="272" y="170" width="150" height="20" as="geometry" />
          </mxCell>
        </UserObject>
        <UserObject label="MySQL&lt;div&gt;Database&lt;/div&gt;" placeholders="1" name="Variable" id="q4EeELKspMTe00ezjZ1U-13">
          <mxCell style="text;html=1;strokeColor=none;fillColor=none;align=center;verticalAlign=middle;whiteSpace=wrap;overflow=hidden;" parent="1" vertex="1">
            <mxGeometry x="572" y="250" width="150" height="40" as="geometry" />
          </mxCell>
        </UserObject>
        <mxCell id="q4EeELKspMTe00ezjZ1U-15" value="" style="endArrow=classic;startArrow=classic;html=1;rounded=0;exitX=1;exitY=0.5;exitDx=0;exitDy=0;entryX=0.003;entryY=0.641;entryDx=0;entryDy=0;entryPerimeter=0;" parent="1" edge="1">
          <mxGeometry width="50" height="50" relative="1" as="geometry">
            <mxPoint x="401.61" y="242" as="sourcePoint" />
            <mxPoint x="576.9999999999999" y="242.44500000000005" as="targetPoint" />
          </mxGeometry>
        </mxCell>
        <UserObject label="Java Persistence&lt;div&gt;API&lt;/div&gt;&lt;div&gt;(Java Database Connectivity Protocol)&lt;/div&gt;" placeholders="1" name="Variable" id="q4EeELKspMTe00ezjZ1U-17">
          <mxCell style="text;html=1;strokeColor=none;fillColor=none;align=center;verticalAlign=middle;whiteSpace=wrap;overflow=hidden;" parent="1" vertex="1">
            <mxGeometry x="452.61" y="160" width="80" height="120" as="geometry" />
          </mxCell>
        </UserObject>
        <mxCell id="luOPubsVX00YWhr6bckh-3" style="edgeStyle=orthogonalEdgeStyle;rounded=0;orthogonalLoop=1;jettySize=auto;html=1;exitX=0.5;exitY=1;exitDx=0;exitDy=0;entryX=0.5;entryY=0;entryDx=0;entryDy=0;startArrow=classic;startFill=1;" edge="1" parent="1" source="q4EeELKspMTe00ezjZ1U-18" target="luOPubsVX00YWhr6bckh-2">
          <mxGeometry relative="1" as="geometry" />
        </mxCell>
        <mxCell id="luOPubsVX00YWhr6bckh-4" value="HTTP (localhost: 5173)" style="edgeLabel;html=1;align=center;verticalAlign=middle;resizable=0;points=[];" vertex="1" connectable="0" parent="luOPubsVX00YWhr6bckh-3">
          <mxGeometry x="-0.025" relative="1" as="geometry">
            <mxPoint x="64" as="offset" />
          </mxGeometry>
        </mxCell>
        <mxCell id="q4EeELKspMTe00ezjZ1U-18" value="" style="html=1;whiteSpace=wrap;" parent="1" vertex="1">
          <mxGeometry x="252" y="400" width="190" height="150" as="geometry" />
        </mxCell>
        <mxCell id="q4EeELKspMTe00ezjZ1U-19" value="" style="rounded=0;whiteSpace=wrap;html=1;" parent="1" vertex="1">
          <mxGeometry x="262" y="410" width="170" height="135" as="geometry" />
        </mxCell>
        <mxCell id="q4EeELKspMTe00ezjZ1U-20" value="" style="rounded=0;whiteSpace=wrap;html=1;" parent="1" vertex="1">
          <mxGeometry x="282" y="427.5" width="120" height="85" as="geometry" />
        </mxCell>
        <UserObject label="React" placeholders="1" name="Variable" id="q4EeELKspMTe00ezjZ1U-21">
          <mxCell style="text;html=1;strokeColor=none;fillColor=none;align=center;verticalAlign=middle;whiteSpace=wrap;overflow=hidden;" parent="1" vertex="1">
            <mxGeometry x="267" y="460" width="150" height="20" as="geometry" />
          </mxCell>
        </UserObject>
        <UserObject label="React Router" placeholders="1" name="Variable" id="q4EeELKspMTe00ezjZ1U-24">
          <mxCell style="text;html=1;strokeColor=none;fillColor=none;align=center;verticalAlign=middle;whiteSpace=wrap;overflow=hidden;" parent="1" vertex="1">
            <mxGeometry x="272" y="520" width="150" height="20" as="geometry" />
          </mxCell>
        </UserObject>
        <mxCell id="q4EeELKspMTe00ezjZ1U-31" value="" style="endArrow=classic;startArrow=classic;html=1;rounded=0;exitX=1;exitY=0.5;exitDx=0;exitDy=0;entryX=0.416;entryY=0.99;entryDx=0;entryDy=0;entryPerimeter=0;" parent="1" target="q4EeELKspMTe00ezjZ1U-12" edge="1">
          <mxGeometry width="50" height="50" relative="1" as="geometry">
            <mxPoint x="332" y="427.5" as="sourcePoint" />
            <mxPoint x="507.3899999999999" y="427.94500000000005" as="targetPoint" />
          </mxGeometry>
        </mxCell>
        <UserObject label="HTTP&amp;nbsp;&lt;span style=&quot;background-color: initial;&quot;&gt;(localhost: 8080)&lt;/span&gt;" placeholders="1" name="Variable" id="q4EeELKspMTe00ezjZ1U-32">
          <mxCell style="text;html=1;strokeColor=none;fillColor=none;align=center;verticalAlign=middle;whiteSpace=wrap;overflow=hidden;" parent="1" vertex="1">
            <mxGeometry x="327" y="340" width="145" height="40" as="geometry" />
          </mxCell>
        </UserObject>
        <mxCell id="luOPubsVX00YWhr6bckh-1" value="Deployment Diagram" style="text;html=1;align=center;verticalAlign=middle;resizable=0;points=[];autosize=1;strokeColor=none;fillColor=none;" vertex="1" parent="1">
          <mxGeometry x="400" y="28" width="140" height="30" as="geometry" />
        </mxCell>
        <mxCell id="luOPubsVX00YWhr6bckh-2" value="End User" style="html=1;whiteSpace=wrap;" vertex="1" parent="1">
          <mxGeometry x="252" y="630" width="190" height="150" as="geometry" />
        </mxCell>
      </root>
    </mxGraphModel>
  </diagram>
</mxfile>
